<?xml version="1.0" ?><!DOCTYPE svg  PUBLIC '-//W3C//DTD SVG 1.1//EN'  'http://www.w3.org/Graphics/SVG/1.1/DTD/svg11.dtd'><svg enable-background="new 0 0 53.763 53.763" height="53.763px" id="Layer_1" version="1.1" viewBox="0 0 53.763 53.763" width="53.763px" xml:space="preserve" xmlns="http://www.w3.org/2000/svg" xmlns:xlink="http://www.w3.org/1999/xlink"><circle cx="26.881" cy="26.969" r="26.881"/><polygon fill="#FFFFFF" points="14.102,16.25 39.75,16.25 37.333,41.792 26.926,44.706 16.417,41.667 "/><polygon fill="#FFFFFF" points="26.483,9.318 25.084,9.318 23.376,9.318 21.977,9.318 21.977,11.027 23.376,11.027 23.376,14.167   25.084,14.167 25.084,11.027 26.483,11.027 "/><polygon fill="#FFFFFF" points="19.521,9.318 19.521,10.888 18.354,10.888 18.354,9.318 16.646,9.318 16.646,14.167 18.354,14.167   18.354,12.597 19.521,12.597 19.521,14.167 21.229,14.167 21.229,9.318 "/><polygon fill="#FFFFFF" points="35.146,12.458 35.146,9.318 33.438,9.318 33.438,12.458 33.438,14.167 35.146,14.167 37.943,14.167   37.943,12.458 "/><polygon fill="#FFFFFF" points="30.981,9.318 29.876,10.888 28.939,9.318 27.231,9.318 27.231,14.167 28.939,14.167 28.939,12.167   29.876,13.312 30.981,11.917 30.981,14.167 32.689,14.167 32.689,9.318 "/><polygon points="34.917,21.459 34.583,24.542 22.333,24.542 22.625,27.667 34.208,27.969 33.438,37.376 26.881,39.209   20.333,37.292 20,32.459 23.125,32.417 23.292,34.959 26.927,36.042 30.583,35.001 31.083,30.959 20,30.917 18.938,21.459 "/></svg>